<?xml version="1.0" encoding="UTF-8" standalone="no"?>
<svg
   xmlns:dc="http://purl.org/dc/elements/1.1/"
   xmlns:cc="http://creativecommons.org/ns#"
   xmlns:rdf="http://www.w3.org/1999/02/22-rdf-syntax-ns#"
   xmlns:svg="http://www.w3.org/2000/svg"
   xmlns="http://www.w3.org/2000/svg"
   xmlns:sodipodi="http://sodipodi.sourceforge.net/DTD/sodipodi-0.dtd"
   xmlns:inkscape="http://www.inkscape.org/namespaces/inkscape"
   enable-background="new 0 0 91 91"
   height="53.060001"
   id="Layer_1"
   version="1.1"
   viewBox="0 0 53.057999 53.060001"
   width="53.057999"
   xml:space="preserve"
   sodipodi:docname="location-cropped.svg"
   inkscape:version="0.92.5 (2060ec1f9f, 2020-04-08)"><metadata
     id="metadata13"><rdf:RDF><cc:Work
         rdf:about=""><dc:format>image/svg+xml</dc:format><dc:type
           rdf:resource="http://purl.org/dc/dcmitype/StillImage" /><dc:title></dc:title></cc:Work></rdf:RDF></metadata><defs
     id="defs11" /><sodipodi:namedview
     pagecolor="#ffffff"
     bordercolor="#666666"
     borderopacity="1"
     objecttolerance="10"
     gridtolerance="10"
     guidetolerance="10"
     inkscape:pageopacity="0"
     inkscape:pageshadow="2"
     inkscape:window-width="1552"
     inkscape:window-height="1126"
     id="namedview9"
     showgrid="false"
     fit-margin-top="0"
     fit-margin-left="0"
     fit-margin-right="0"
     fit-margin-bottom="0"
     inkscape:zoom="2.5934066"
     inkscape:cx="-46.667746"
     inkscape:cy="29.759"
     inkscape:window-x="505"
     inkscape:window-y="803"
     inkscape:window-maximized="0"
     inkscape:current-layer="Layer_1" /><g
     id="g6"
     transform="translate(-20.833,-22.199)"><path
       d="m 49.061,28.644 v -6.445 h -3.4 v 6.445 C 35.897,29.465 28.1,37.263 27.28,47.03 h -6.447 v 3.4 h 6.447 c 0.82,9.764 8.617,17.56 18.381,18.381 v 6.448 h 3.4 V 68.811 C 58.827,67.99 66.624,60.194 67.444,50.43 h 6.447 v -3.4 H 67.444 C 66.623,37.263 58.826,29.465 49.061,28.644 Z m 0,36.766 v -5.14 h -3.4 v 5.14 C 37.77,64.611 31.479,58.32 30.681,50.43 h 5.139 v -3.4 h -5.14 c 0.797,-7.894 7.09,-14.187 14.98,-14.985 v 5.141 h 3.4 v -5.141 c 7.893,0.799 14.184,7.092 14.982,14.985 h -5.139 v 3.4 h 5.139 c -0.798,7.89 -7.089,14.181 -14.981,14.98 z"
       id="path2"
       inkscape:connector-curvature="0"
       style="fill:#464646" /><path
       d="m 47.361,45.528 c -1.764,0 -3.199,1.436 -3.199,3.199 0,1.763 1.436,3.199 3.199,3.199 1.763,0 3.199,-1.436 3.199,-3.199 0,-1.763 -1.435,-3.199 -3.199,-3.199 z m -0.201,3.2 c 0,-0.11 0.09,-0.201 0.201,-0.201 0.111,0 0.201,0.091 0.201,0.201 0.001,0.219 -0.402,0.221 -0.402,0 z"
       id="path4"
       inkscape:connector-curvature="0"
       style="fill:#464646" /></g></svg>